<svg xmlns="http://www.w3.org/2000/svg" xmlns:xlink="http://www.w3.org/1999/xlink" version="1.2" baseProfile="tiny" xml:space="preserve" width="88.50000011175871" height="106.00000022351742" style=""><rect id="backgroundrect" width="100%" height="100%" x="0" y="0" fill="none" stroke="none" class="selected" style=""/><g class="currentLayer" style=""><title>Layer 1</title><path d="M14.955357015132904,103.12500357627869 h63.839284777641296 c4.807678500890733,0 8.705357015132904,-3.847708466768265 8.705357015132904,-8.593750298023224 V17.187500596046448 c0,-4.74604183125496 -3.8976785142421733,-8.593750298023224 -8.705357015132904,-8.593750298023224 H64.28571343421936 v-5.729166865348816 C64.28571343421936,1.2821875444650637 62.98687416756154,0 61.38392776250839,0 h-29.01785671710968 C30.763124640345573,0 29.464285373687744,1.2821875444650637 29.464285373687744,2.864583432674408 v5.729166865348816 H14.955357015132904 c-4.807678500890733,0 -8.705357015132904,3.847708466768265 -8.705357015132904,8.593750298023224 v77.34375268220901 C6.25,99.27729510951042 10.147678514242173,103.12500357627869 14.955357015132904,103.12500357627869 zM35.26785671710968,5.729166865348816 h23.214285373687744 v5.729166865348816 H35.26785671710968 V5.729166865348816 zM14.955357015132904,17.187500596046448 h17.410714030265808 h29.01785671710968 h17.410714030265808 v77.34375268220901 h-63.839284777641296 V17.187500596046448 z" id="svg_1" class=""/><path d="M33.75,49.375 c2.757,0 5,-2.243 5,-5 s-2.243,-5 -5,-5 s-5,2.243 -5,5 S30.993000000000002,49.375 33.75,49.375 z" id="svg_2" class=""/><path d="M33.75,79.375 c-4.136,0 -7.5,-3.364 -7.5,-7.5 c0,-1.014 0.19800000000000006,-1.996 0.5880000000000002,-2.918 c0.3780000000000001,-0.8930000000000002 0.919,-1.6960000000000004 1.608,-2.3850000000000002 c0.6900000000000004,-0.6890000000000004 1.493,-1.231 2.386,-1.609 l-1.949,-4.604 c-1.488,0.6300000000000002 -2.824,1.5310000000000001 -3.972,2.678 c-1.146,1.147 -2.047,2.483 -2.678,3.972 C21.581,68.551 21.25,70.188 21.25,71.875 c0,6.893 5.607,12.5 12.5,12.5 S46.25,78.768 46.25,71.875 h-5 C41.25,76.011 37.886,79.375 33.75,79.375 z" id="svg_3" class=""/><polygon points="40.29499816894531,64.375 37.79499816894531,59.375 46.25,59.375 46.25,54.375 35.29499816894531,54.375 33.486000061035156,50.75699996948242 29.013999938964844,52.99299621582031 37.20500183105469,69.375 47.20500183105469,69.375 51.513999938964844,77.99299621582031 55.986000061035156,75.75700378417969 50.29499816894531,64.375 " id="svg_4" class=""/><rect x="43.75" y="29.375" width="22.5" height="5" id="svg_5" class=""/><rect x="43.75" y="36.875" width="22.5" height="5" id="svg_6" class=""/><rect x="43.75" y="44.375" width="22.5" height="5" id="svg_7" class=""/></g></svg>