<?xml version="1.0" encoding="UTF-8" standalone="no"?>
<svg
   xmlns:dc="http://purl.org/dc/elements/1.1/"
   xmlns:cc="http://creativecommons.org/ns#"
   xmlns:rdf="http://www.w3.org/1999/02/22-rdf-syntax-ns#"
   xmlns:svg="http://www.w3.org/2000/svg"
   xmlns="http://www.w3.org/2000/svg"
   viewBox="0 0 480 480"
   height="480"
   width="480"
   xml:space="preserve"
   id="svg2"
   version="1.1"><metadata
     id="metadata8"><rdf:RDF><cc:Work
         rdf:about=""><dc:format>image/svg+xml</dc:format><dc:type
           rdf:resource="http://purl.org/dc/dcmitype/StillImage" /></cc:Work></rdf:RDF></metadata><defs
     id="defs6" /><g
     transform="matrix(1.3333333,0,0,-1.3333333,0,480)"
     id="g10"><g
       transform="scale(0.1)"
       id="g12"><path
         id="path14"
         style="fill:#181210;fill-opacity:1;fill-rule:nonzero;stroke:none"
         d="m 47.6992,47.6992 h 3504.61 v 3504.61 H 47.6992 Z" /><path
         id="path16"
         style="fill:#ffffff;fill-opacity:1;fill-rule:nonzero;stroke:none"
         d="m 2902.8,2576.53 -5.61,154.34 c 0,15.34 11.66,14.78 38.87,9.29 l 124.88,-24.08 -16.13,41.21 c -5.6,15.69 -6.95,26.38 5.49,36.97 l 147.94,120.68 -27.33,16.68 c -7.83,5.93 -8.28,12.43 -4.14,25.88 l 27.78,90.14 -71.23,-15.28 c -19.93,-4.6 -25.43,0 -30.46,11.1 l -19.95,40.65 -70.21,-79.52 c -12.54,-14.79 -30.14,-5.04 -24.52,16.18 l 33.7,166.03 -52.19,-30.12 c -8.4,-5.04 -17.14,-6.45 -22.18,3.25 l -55.1,111.44 -55.1,-111.44 c -5.04,-9.7 -13.78,-8.29 -22.17,-3.25 l -52.2,30.12 33.71,-166.03 c 5.61,-21.22 -11.98,-30.97 -24.52,-16.18 l -70.22,79.52 -19.94,-40.65 c -5.04,-11.1 -10.53,-15.7 -30.46,-11.1 l -71.23,15.28 27.77,-90.14 c 4.14,-13.45 3.69,-19.95 -4.14,-25.88 l -27.34,-16.68 147.95,-120.68 c 12.44,-10.59 11.1,-21.28 5.49,-36.97 l -16.13,-41.21 124.88,24.08 c 27.22,5.49 38.87,6.05 38.87,-9.29 l -5.6,-154.34 h 40.77" /><path
         id="path18"
         style="fill:#ffffff;fill-opacity:1;fill-rule:nonzero;stroke:none"
         d="m 2318.36,1657.23 c 0,-103.57 -1.08,-130.83 -7.62,-160.26 -9.81,-44.71 -34.9,-122.11 -173.36,-122.11 -117.75,0 -165.73,69.78 -177.72,140.64 -3.27,21.8 -7.63,54.52 -7.63,246.4 0,202.81 3.27,226.79 8.72,260.59 6.54,33.8 26.17,145.01 184.26,145.01 63.23,0 141.75,-27.26 161.36,-111.21 8.73,-37.07 8.73,-82.86 7.65,-142.83 h -89.42 v 57.78 c 0,52.34 -1.09,115.57 -79.59,115.57 -81.77,0 -88.31,-65.41 -91.59,-94.85 -6.53,-55.6 -6.53,-172.26 -6.53,-231.14 0,-46.89 2.18,-202.79 6.53,-233.32 3.28,-14.18 13.09,-71.96 89.41,-71.96 68.7,0 78.5,58.87 81.77,73.05 4.37,19.62 4.37,37.06 4.37,128.64 h 89.39" /><path
         id="path20"
         style="fill:#ffffff;fill-opacity:1;fill-rule:nonzero;stroke:none"
         d="m 2492.9,1469.82 h 62.16 c 61.05,0 104.66,5.45 115.56,74.13 5.46,35.99 6.55,143.93 6.55,184.27 0,70.87 0,98.13 -1.09,172.27 -1.1,83.94 -2.18,125.38 -35.98,149.36 -23.99,16.36 -45.79,16.36 -147.2,16.36 z m -95.93,-85.05 v 769.75 h 145.01 c 75.22,0 143.9,0 189.7,-57.78 35.99,-44.71 39.25,-85.05 39.25,-271.49 0,-41.42 0,-90.49 -2.19,-195.15 -1.07,-75.24 -3.25,-129.76 -30.51,-175.54 -43.62,-69.79 -115.57,-69.79 -198.43,-69.79 h -142.83" /><path
         id="path22"
         style="fill:#ffffff;fill-opacity:1;fill-rule:nonzero;stroke:none"
         d="m 2831.32,1651.79 h 91.57 c 0,-80.69 0,-89.4 1.1,-103.58 1.09,-19.62 7.63,-91.58 92.68,-91.58 30.52,0 97.03,11.99 97.03,95.94 0,61.05 -27.25,91.59 -70.87,136.3 l -104.67,106.83 c -73.05,75.24 -88.3,122.12 -88.3,191.9 0,42.53 0,179.9 178.8,179.9 39.25,0 105.76,-6.54 140.65,-63.24 21.8,-35.98 21.8,-62.15 21.8,-175.54 h -83.95 c -2.19,73.06 -2.19,80.68 -4.36,94.86 -2.17,14.17 -12,62.14 -79.59,62.14 -80.69,0 -80.69,-69.77 -80.69,-91.58 0,-57.78 20.71,-80.68 75.25,-138.47 l 97.03,-101.39 c 63.23,-67.6 91.58,-106.85 91.58,-195.17 0,-163.54 -128.66,-184.25 -186.45,-184.25 -74.13,0 -113.39,25.07 -128.64,38.16 -49.07,38.16 -59.97,95.93 -59.97,153.73 v 85.04" /><path
         id="path24"
         style="fill:#ffffff;fill-opacity:1;fill-rule:nonzero;stroke:none"
         d="m 1946.25,697.809 h 91.58 c 0,-80.688 0,-89.399 1.1,-103.579 1.08,-19.621 7.64,-91.589 92.67,-91.589 30.52,0 97.05,12 97.05,95.949 0,61.058 -27.26,91.582 -70.87,136.289 L 2053.1,841.73 c -73.06,75.219 -88.3,122.11 -88.3,191.89 0,42.52 0,179.89 178.8,179.89 39.24,0 105.75,-6.54 140.65,-63.24 21.8,-35.97 21.8,-62.14 21.8,-175.54 h -83.96 c -2.18,73.06 -2.18,80.7 -4.36,94.87 -2.17,14.17 -11.99,62.15 -79.59,62.15 -80.68,0 -80.68,-69.79 -80.68,-91.6 0,-57.779 20.72,-80.681 75.24,-138.459 l 97.04,-101.402 c 63.22,-67.598 91.57,-106.84 91.57,-195.16 0,-163.539 -128.65,-184.25 -186.44,-184.25 -74.13,0 -113.39,25.07 -128.65,38.152 -49.07,38.168 -59.97,95.949 -59.97,153.731 v 85.047" /><path
         id="path26"
         style="fill:#ffffff;fill-opacity:1;fill-rule:nonzero;stroke:none"
         d="m 2751.09,431.781 h -135.21 l -150.46,667.249 13.09,-667.249 h -93.76 v 770.839 h 130.84 l 155.9,-674.901 -13.09,674.901 h 92.69 V 431.781" /><path
         id="path28"
         style="fill:#ffffff;fill-opacity:1;fill-rule:nonzero;stroke:none"
         d="m 3193.95,703.262 c 0,-103.582 -1.1,-130.84 -7.63,-160.274 -9.81,-44.707 -34.9,-122.109 -173.36,-122.109 -117.74,0 -165.72,69.769 -177.71,140.633 -3.28,21.808 -7.63,54.519 -7.63,246.418 0,202.79 3.26,226.78 8.71,260.57 6.54,33.8 26.17,145.01 184.27,145.01 63.23,0 141.74,-27.25 161.36,-111.21 8.73,-37.07 8.73,-82.86 7.63,-142.831 h -89.4 v 57.791 c 0,52.34 -1.1,115.57 -79.59,115.57 -81.77,0 -88.32,-65.42 -91.59,-94.85 -6.54,-55.609 -6.54,-172.269 -6.54,-231.148 0,-46.883 2.18,-202.793 6.54,-233.32 3.27,-14.172 13.07,-71.961 89.4,-71.961 68.69,0 78.5,58.879 81.78,73.058 4.36,19.621 4.36,37.063 4.36,128.653 h 89.4" /><path
         id="path30"
         style="fill:#ffffff;fill-opacity:1;fill-rule:nonzero;stroke:none"
         d="M 95.4023,95.3984 H 3504.6 V 3504.61 H 95.4023 Z M 3600,0 H 0.00390625 V 3600.01 H 3600 V 0" /></g></g></svg>